STARTFONT 2.1
FONT -classic-rockfont-Medium-R-Normal--8-80-75-75-P-48-ISO8859-1
SIZE 8 75 75
FONTBOUNDINGBOX 7 18 1 0
COMMENT "Generated by pfaedit, http://pfaedit.sourceforge.net"
STARTPROPERTIES 27
FONT_NAME "rockfontmedium"
FONT_ASCENT 8
FONT_DESCENT 0
UNDERLINE_POSITION 0
UNDERLINE_THICKNESS 0
QUAD_WIDTH 8
X_HEIGHT 5
CAP_HEIGHT 7
FONTNAME_REGISTRY ""
FAMILY_NAME "rockfont"
FOUNDRY "classic"
WEIGHT_NAME "Medium"
SETWIDTH_NAME "Normal"
SLANT "R"
ADD_STYLE_NAME ""
PIXEL_SIZE 8
POINT_SIZE 80
RESOLUTION_X 75
RESOLUTION_Y 75
RESOLUTION 75
SPACING "P"
AVERAGE_WIDTH 48
CHARSET_REGISTRY "FontSpecific"
CHARSET_ENCODING "1"
CHARSET_COLLECTIONS "ASCII ISOLatin1Encoding ISO8859-1"
FULL_NAME "rockfont medium"
COPYRIGHT "by Jens Arnold 10/2003 V1.0, based on work by Uwe Freese"
ENDPROPERTIES
CHARS 190
STARTCHAR space
ENCODING 32
SWIDTH 500 0
DWIDTH 4 0
BBX 1 1 4 0
BITMAP
00
ENDCHAR
STARTCHAR exclam
ENCODING 33
SWIDTH 720 0
DWIDTH 2 0
BBX 1 7 1 1
BITMAP
80
80
80
80
80
00
80
ENDCHAR
STARTCHAR quotedbl
ENCODING 34
SWIDTH 720 0
DWIDTH 4 0
BBX 3 3 1 5
BITMAP
A0
A0
A0
ENDCHAR
STARTCHAR numbersign
ENCODING 35
SWIDTH 720 0
DWIDTH 6 0
BBX 5 6 1 1
BITMAP
50
F8
50
50
F8
50
ENDCHAR
STARTCHAR dollar
ENCODING 36
SWIDTH 720 0
DWIDTH 6 0
BBX 5 7 1 1
BITMAP
20
78
A0
70
28
F0
20
ENDCHAR
STARTCHAR percent
ENCODING 37
SWIDTH 720 0
DWIDTH 6 0
BBX 5 7 1 1
BITMAP
C0
C8
10
20
40
98
18
ENDCHAR
STARTCHAR ampersand
ENCODING 38
SWIDTH 750 0
DWIDTH 6 0
BBX 5 7 1 1
BITMAP
60
90
A0
40
A8
90
68
ENDCHAR
STARTCHAR quotesingle
ENCODING 39
SWIDTH 720 0
DWIDTH 2 0
BBX 1 3 1 5
BITMAP
80
80
80
ENDCHAR
STARTCHAR parenleft
ENCODING 40
SWIDTH 720 0
DWIDTH 3 0
BBX 2 7 1 1
BITMAP
40
80
80
80
80
80
40
ENDCHAR
STARTCHAR parenright
ENCODING 41
SWIDTH 720 0
DWIDTH 3 0
BBX 2 7 1 1
BITMAP
80
40
40
40
40
40
80
ENDCHAR
STARTCHAR asterisk
ENCODING 42
SWIDTH 720 0
DWIDTH 6 0
BBX 5 5 1 1
BITMAP
50
20
F8
20
50
ENDCHAR
STARTCHAR plus
ENCODING 43
SWIDTH 720 0
DWIDTH 6 0
BBX 5 5 1 1
BITMAP
20
20
F8
20
20
ENDCHAR
STARTCHAR comma
ENCODING 44
SWIDTH 720 0
DWIDTH 3 0
BBX 2 3 1 0
BITMAP
40
40
80
ENDCHAR
STARTCHAR hyphen
ENCODING 45
SWIDTH 720 0
DWIDTH 6 0
BBX 5 1 1 3
BITMAP
F8
ENDCHAR
STARTCHAR period
ENCODING 46
SWIDTH 720 0
DWIDTH 2 0
BBX 1 1 1 1
BITMAP
80
ENDCHAR
STARTCHAR slash
ENCODING 47
SWIDTH 720 0
DWIDTH 5 0
BBX 4 8 1 0
BITMAP
10
10
20
20
40
40
80
80
ENDCHAR
STARTCHAR zero
ENCODING 48
SWIDTH 720 0
DWIDTH 5 0
BBX 4 7 1 1
BITMAP
60
90
B0
D0
90
90
60
ENDCHAR
STARTCHAR one
ENCODING 49
SWIDTH 720 0
DWIDTH 5 0
BBX 3 7 1 1
BITMAP
20
60
A0
20
20
20
20
ENDCHAR
STARTCHAR two
ENCODING 50
SWIDTH 720 0
DWIDTH 5 0
BBX 4 7 1 1
BITMAP
60
90
10
60
80
80
F0
ENDCHAR
STARTCHAR three
ENCODING 51
SWIDTH 720 0
DWIDTH 5 0
BBX 4 7 1 1
BITMAP
60
90
10
60
10
90
60
ENDCHAR
STARTCHAR four
ENCODING 52
SWIDTH 720 0
DWIDTH 5 0
BBX 4 7 1 1
BITMAP
20
60
A0
A0
F0
20
20
ENDCHAR
STARTCHAR five
ENCODING 53
SWIDTH 720 0
DWIDTH 5 0
BBX 4 7 1 1
BITMAP
F0
80
E0
90
10
90
60
ENDCHAR
STARTCHAR six
ENCODING 54
SWIDTH 720 0
DWIDTH 5 0
BBX 4 7 1 1
BITMAP
60
90
80
E0
90
90
60
ENDCHAR
STARTCHAR seven
ENCODING 55
SWIDTH 720 0
DWIDTH 5 0
BBX 4 7 1 1
BITMAP
F0
10
10
20
20
40
40
ENDCHAR
STARTCHAR eight
ENCODING 56
SWIDTH 720 0
DWIDTH 5 0
BBX 4 7 1 1
BITMAP
60
90
90
60
90
90
60
ENDCHAR
STARTCHAR nine
ENCODING 57
SWIDTH 720 0
DWIDTH 5 0
BBX 4 7 1 1
BITMAP
60
90
90
70
10
90
60
ENDCHAR
STARTCHAR colon
ENCODING 58
SWIDTH 720 0
DWIDTH 2 0
BBX 1 5 1 1
BITMAP
80
00
00
00
80
ENDCHAR
STARTCHAR semicolon
ENCODING 59
SWIDTH 720 0
DWIDTH 3 0
BBX 2 6 1 0
BITMAP
40
00
00
40
40
80
ENDCHAR
STARTCHAR less
ENCODING 60
SWIDTH 720 0
DWIDTH 4 0
BBX 3 5 1 1
BITMAP
20
40
80
40
20
ENDCHAR
STARTCHAR equal
ENCODING 61
SWIDTH 720 0
DWIDTH 5 0
BBX 4 3 1 2
BITMAP
F0
00
F0
ENDCHAR
STARTCHAR greater
ENCODING 62
SWIDTH 720 0
DWIDTH 4 0
BBX 3 5 1 1
BITMAP
80
40
20
40
80
ENDCHAR
STARTCHAR question
ENCODING 63
SWIDTH 720 0
DWIDTH 5 0
BBX 4 7 1 1
BITMAP
60
90
10
60
40
00
40
ENDCHAR
STARTCHAR at
ENCODING 64
SWIDTH 720 0
DWIDTH 6 0
BBX 5 6 1 1
BITMAP
70
88
B8
B0
80
70
ENDCHAR
STARTCHAR A
ENCODING 65
SWIDTH 720 0
DWIDTH 5 0
BBX 4 7 1 1
BITMAP
60
90
90
F0
90
90
90
ENDCHAR
STARTCHAR B
ENCODING 66
SWIDTH 720 0
DWIDTH 5 0
BBX 4 7 1 1
BITMAP
E0
90
90
E0
90
90
E0
ENDCHAR
STARTCHAR C
ENCODING 67
SWIDTH 720 0
DWIDTH 5 0
BBX 4 7 1 1
BITMAP
60
90
80
80
80
90
60
ENDCHAR
STARTCHAR D
ENCODING 68
SWIDTH 720 0
DWIDTH 5 0
BBX 4 7 1 1
BITMAP
E0
90
90
90
90
90
E0
ENDCHAR
STARTCHAR E
ENCODING 69
SWIDTH 720 0
DWIDTH 5 0
BBX 4 7 1 1
BITMAP
F0
80
80
E0
80
80
F0
ENDCHAR
STARTCHAR F
ENCODING 70
SWIDTH 720 0
DWIDTH 5 0
BBX 4 7 1 1
BITMAP
F0
80
80
E0
80
80
80
ENDCHAR
STARTCHAR G
ENCODING 71
SWIDTH 720 0
DWIDTH 5 0
BBX 4 7 1 1
BITMAP
70
80
80
B0
90
90
70
ENDCHAR
STARTCHAR H
ENCODING 72
SWIDTH 720 0
DWIDTH 5 0
BBX 4 7 1 1
BITMAP
90
90
90
F0
90
90
90
ENDCHAR
STARTCHAR I
ENCODING 73
SWIDTH 720 0
DWIDTH 4 0
BBX 3 7 1 1
BITMAP
E0
40
40
40
40
40
E0
ENDCHAR
STARTCHAR J
ENCODING 74
SWIDTH 720 0
DWIDTH 5 0
BBX 4 7 1 1
BITMAP
10
10
10
10
90
90
60
ENDCHAR
STARTCHAR K
ENCODING 75
SWIDTH 720 0
DWIDTH 5 0
BBX 4 7 1 1
BITMAP
90
90
A0
C0
A0
90
90
ENDCHAR
STARTCHAR L
ENCODING 76
SWIDTH 720 0
DWIDTH 5 0
BBX 4 7 1 1
BITMAP
80
80
80
80
80
80
F0
ENDCHAR
STARTCHAR M
ENCODING 77
SWIDTH 720 0
DWIDTH 6 0
BBX 5 7 1 1
BITMAP
88
D8
D8
A8
A8
88
88
ENDCHAR
STARTCHAR N
ENCODING 78
SWIDTH 720 0
DWIDTH 5 0
BBX 4 7 1 1
BITMAP
90
D0
D0
B0
B0
90
90
ENDCHAR
STARTCHAR O
ENCODING 79
SWIDTH 720 0
DWIDTH 5 0
BBX 4 7 1 1
BITMAP
60
90
90
90
90
90
60
ENDCHAR
STARTCHAR P
ENCODING 80
SWIDTH 720 0
DWIDTH 5 0
BBX 4 7 1 1
BITMAP
E0
90
90
E0
80
80
80
ENDCHAR
STARTCHAR Q
ENCODING 81
SWIDTH 720 0
DWIDTH 6 0
BBX 5 7 1 1
BITMAP
60
90
90
90
B0
90
68
ENDCHAR
STARTCHAR R
ENCODING 82
SWIDTH 720 0
DWIDTH 5 0
BBX 4 7 1 1
BITMAP
E0
90
90
E0
A0
90
90
ENDCHAR
STARTCHAR S
ENCODING 83
SWIDTH 720 0
DWIDTH 5 0
BBX 4 7 1 1
BITMAP
60
90
80
60
10
90
60
ENDCHAR
STARTCHAR T
ENCODING 84
SWIDTH 720 0
DWIDTH 6 0
BBX 5 7 1 1
BITMAP
F8
20
20
20
20
20
20
ENDCHAR
STARTCHAR U
ENCODING 85
SWIDTH 720 0
DWIDTH 5 0
BBX 4 7 1 1
BITMAP
90
90
90
90
90
90
60
ENDCHAR
STARTCHAR V
ENCODING 86
SWIDTH 720 0
DWIDTH 6 0
BBX 5 7 1 1
BITMAP
88
88
88
88
50
50
20
ENDCHAR
STARTCHAR W
ENCODING 87
SWIDTH 720 0
DWIDTH 6 0
BBX 5 7 1 1
BITMAP
88
88
88
A8
A8
A8
50
ENDCHAR
STARTCHAR X
ENCODING 88
SWIDTH 720 0
DWIDTH 6 0
BBX 5 7 1 1
BITMAP
88
88
50
20
50
88
88
ENDCHAR
STARTCHAR Y
ENCODING 89
SWIDTH 720 0
DWIDTH 6 0
BBX 5 7 1 1
BITMAP
88
88
88
50
20
20
20
ENDCHAR
STARTCHAR Z
ENCODING 90
SWIDTH 720 0
DWIDTH 6 0
BBX 5 7 1 1
BITMAP
F8
08
10
20
40
80
F8
ENDCHAR
STARTCHAR bracketleft
ENCODING 91
SWIDTH 720 0
DWIDTH 3 0
BBX 2 7 1 1
BITMAP
C0
80
80
80
80
80
C0
ENDCHAR
STARTCHAR backslash
ENCODING 92
SWIDTH 720 0
DWIDTH 5 0
BBX 4 8 1 0
BITMAP
80
80
40
40
20
20
10
10
ENDCHAR
STARTCHAR bracketright
ENCODING 93
SWIDTH 720 0
DWIDTH 3 0
BBX 2 7 1 1
BITMAP
C0
40
40
40
40
40
C0
ENDCHAR
STARTCHAR asciicircum
ENCODING 94
SWIDTH 720 0
DWIDTH 6 0
BBX 5 3 1 5
BITMAP
20
50
88
ENDCHAR
STARTCHAR underscore
ENCODING 95
SWIDTH 720 0
DWIDTH 6 0
BBX 5 1 1 0
BITMAP
F8
ENDCHAR
STARTCHAR grave
ENCODING 96
SWIDTH 720 0
DWIDTH 3 0
BBX 2 3 1 5
BITMAP
80
80
40
ENDCHAR
STARTCHAR a
ENCODING 97
SWIDTH 720 0
DWIDTH 5 0
BBX 4 5 1 1
BITMAP
60
10
70
90
70
ENDCHAR
STARTCHAR b
ENCODING 98
SWIDTH 720 0
DWIDTH 5 0
BBX 4 7 1 1
BITMAP
80
80
E0
90
90
90
E0
ENDCHAR
STARTCHAR c
ENCODING 99
SWIDTH 500 0
DWIDTH 4 0
BBX 3 5 1 1
BITMAP
60
80
80
80
60
ENDCHAR
STARTCHAR d
ENCODING 100
SWIDTH 720 0
DWIDTH 5 0
BBX 4 7 1 1
BITMAP
10
10
70
90
90
90
70
ENDCHAR
STARTCHAR e
ENCODING 101
SWIDTH 720 0
DWIDTH 5 0
BBX 4 5 1 1
BITMAP
60
90
F0
80
70
ENDCHAR
STARTCHAR f
ENCODING 102
SWIDTH 720 0
DWIDTH 5 0
BBX 4 7 1 1
BITMAP
30
40
E0
40
40
40
40
ENDCHAR
STARTCHAR g
ENCODING 103
SWIDTH 720 0
DWIDTH 5 0
BBX 4 6 1 0
BITMAP
70
90
90
70
10
60
ENDCHAR
STARTCHAR h
ENCODING 104
SWIDTH 720 0
DWIDTH 5 0
BBX 4 7 1 1
BITMAP
80
80
E0
90
90
90
90
ENDCHAR
STARTCHAR i
ENCODING 105
SWIDTH 375 0
DWIDTH 3 0
BBX 2 7 1 1
BITMAP
80
00
80
80
80
80
40
ENDCHAR
STARTCHAR j
ENCODING 106
SWIDTH 500 0
DWIDTH 4 0
BBX 3 8 1 0
BITMAP
20
00
20
20
20
20
A0
40
ENDCHAR
STARTCHAR k
ENCODING 107
SWIDTH 720 0
DWIDTH 5 0
BBX 4 7 1 1
BITMAP
80
80
90
A0
C0
A0
90
ENDCHAR
STARTCHAR l
ENCODING 108
SWIDTH 375 0
DWIDTH 3 0
BBX 2 7 1 1
BITMAP
80
80
80
80
80
80
40
ENDCHAR
STARTCHAR m
ENCODING 109
SWIDTH 720 0
DWIDTH 6 0
BBX 5 5 1 1
BITMAP
D0
A8
A8
A8
A8
ENDCHAR
STARTCHAR n
ENCODING 110
SWIDTH 720 0
DWIDTH 5 0
BBX 4 5 1 1
BITMAP
E0
90
90
90
90
ENDCHAR
STARTCHAR o
ENCODING 111
SWIDTH 720 0
DWIDTH 5 0
BBX 4 5 1 1
BITMAP
60
90
90
90
60
ENDCHAR
STARTCHAR p
ENCODING 112
SWIDTH 720 0
DWIDTH 5 0
BBX 4 6 1 0
BITMAP
E0
90
90
E0
80
80
ENDCHAR
STARTCHAR q
ENCODING 113
SWIDTH 720 0
DWIDTH 5 0
BBX 4 6 1 0
BITMAP
70
90
90
70
10
10
ENDCHAR
STARTCHAR r
ENCODING 114
SWIDTH 720 0
DWIDTH 4 0
BBX 3 5 1 1
BITMAP
A0
C0
80
80
80
ENDCHAR
STARTCHAR s
ENCODING 115
SWIDTH 720 0
DWIDTH 5 0
BBX 4 5 1 1
BITMAP
60
80
60
10
E0
ENDCHAR
STARTCHAR t
ENCODING 116
SWIDTH 720 0
DWIDTH 4 0
BBX 3 7 1 1
BITMAP
40
40
E0
40
40
40
20
ENDCHAR
STARTCHAR u
ENCODING 117
SWIDTH 720 0
DWIDTH 5 0
BBX 4 5 1 1
BITMAP
90
90
90
90
70
ENDCHAR
STARTCHAR v
ENCODING 118
SWIDTH 720 0
DWIDTH 6 0
BBX 5 5 1 1
BITMAP
88
88
50
50
20
ENDCHAR
STARTCHAR w
ENCODING 119
SWIDTH 720 0
DWIDTH 6 0
BBX 5 5 1 1
BITMAP
88
88
A8
A8
50
ENDCHAR
STARTCHAR x
ENCODING 120
SWIDTH 720 0
DWIDTH 4 0
BBX 3 5 1 1
BITMAP
A0
A0
40
A0
A0
ENDCHAR
STARTCHAR y
ENCODING 121
SWIDTH 720 0
DWIDTH 5 0
BBX 4 6 1 0
BITMAP
90
90
90
70
10
60
ENDCHAR
STARTCHAR z
ENCODING 122
SWIDTH 720 0
DWIDTH 4 0
BBX 3 5 1 1
BITMAP
E0
20
40
80
E0
ENDCHAR
STARTCHAR braceleft
ENCODING 123
SWIDTH 720 0
DWIDTH 4 0
BBX 3 7 1 1
BITMAP
20
40
40
80
40
40
20
ENDCHAR
STARTCHAR bar
ENCODING 124
SWIDTH 720 0
DWIDTH 2 0
BBX 1 8 1 0
BITMAP
80
80
80
80
80
80
80
80
ENDCHAR
STARTCHAR braceright
ENCODING 125
SWIDTH 720 0
DWIDTH 4 0
BBX 3 7 1 1
BITMAP
80
40
40
20
40
40
80
ENDCHAR
STARTCHAR asciitilde
ENCODING 126
SWIDTH 720 0
DWIDTH 6 0
BBX 5 2 1 6
BITMAP
68
B0
ENDCHAR
STARTCHAR exclamdown
ENCODING 161
SWIDTH 720 0
DWIDTH 2 0
BBX 1 7 1 1
BITMAP
80
00
80
80
80
80
80
ENDCHAR
STARTCHAR cent
ENCODING 162
SWIDTH 720 0
DWIDTH 6 0
BBX 5 7 1 0
BITMAP
20
70
A8
A0
A8
70
20
ENDCHAR
STARTCHAR sterling
ENCODING 163
SWIDTH 720 0
DWIDTH 6 0
BBX 5 7 1 1
BITMAP
30
48
40
F0
40
40
F8
ENDCHAR
STARTCHAR currency
ENCODING 164
SWIDTH 720 0
DWIDTH 5 0
BBX 4 7 1 1
BITMAP
30
40
E0
40
E0
40
30
ENDCHAR
STARTCHAR yen
ENCODING 165
SWIDTH 720 0
DWIDTH 6 0
BBX 5 7 1 1
BITMAP
88
88
50
20
70
20
20
ENDCHAR
STARTCHAR brokenbar
ENCODING 166
SWIDTH 720 0
DWIDTH 2 0
BBX 1 7 1 1
BITMAP
80
80
80
00
80
80
80
ENDCHAR
STARTCHAR section
ENCODING 167
SWIDTH 720 0
DWIDTH 5 0
BBX 4 7 1 1
BITMAP
70
80
60
90
60
10
E0
ENDCHAR
STARTCHAR dieresis
ENCODING 168
SWIDTH 720 0
DWIDTH 5 0
BBX 4 1 1 7
BITMAP
90
ENDCHAR
STARTCHAR copyright
ENCODING 169
SWIDTH 875 0
DWIDTH 7 0
BBX 6 7 1 1
BITMAP
78
84
B4
A4
B4
84
78
ENDCHAR
STARTCHAR ordfeminine
ENCODING 170
SWIDTH 500 0
DWIDTH 4 0
BBX 3 5 1 3
BITMAP
60
A0
E0
00
E0
ENDCHAR
STARTCHAR guillemotleft
ENCODING 171
SWIDTH 720 0
DWIDTH 6 0
BBX 5 5 1 1
BITMAP
28
50
A0
50
28
ENDCHAR
STARTCHAR logicalnot
ENCODING 172
SWIDTH 625 0
DWIDTH 5 0
BBX 4 2 1 6
BITMAP
F0
10
ENDCHAR
STARTCHAR softhyphen
ENCODING 173
SWIDTH 720 0
DWIDTH 6 0
BBX 5 1 1 3
BITMAP
F8
ENDCHAR
STARTCHAR registered
ENCODING 174
SWIDTH 875 0
DWIDTH 7 0
BBX 6 7 1 1
BITMAP
78
84
B4
B4
AC
84
78
ENDCHAR
STARTCHAR macron
ENCODING 175
SWIDTH 750 0
DWIDTH 6 0
BBX 5 18 1 7
BITMAP
F8
00
00
00
00
00
00
00
00
00
00
00
00
00
00
00
00
F8
ENDCHAR
STARTCHAR degree
ENCODING 176
SWIDTH 500 0
DWIDTH 4 0
BBX 3 3 1 5
BITMAP
40
A0
40
ENDCHAR
STARTCHAR plusminus
ENCODING 177
SWIDTH 500 0
DWIDTH 4 0
BBX 3 5 1 1
BITMAP
40
E0
40
00
E0
ENDCHAR
STARTCHAR twosuperior
ENCODING 178
SWIDTH 720 0
DWIDTH 5 0
BBX 3 4 1 4
BITMAP
C0
20
40
E0
ENDCHAR
STARTCHAR threesuperior
ENCODING 179
SWIDTH 720 0
DWIDTH 4 0
BBX 3 4 1 4
BITMAP
E0
40
20
C0
ENDCHAR
STARTCHAR acute
ENCODING 180
SWIDTH 720 0
DWIDTH 3 0
BBX 2 2 1 6
BITMAP
40
80
ENDCHAR
STARTCHAR mu
ENCODING 181
SWIDTH 720 0
DWIDTH 5 0
BBX 4 6 1 0
BITMAP
90
90
90
D0
A0
80
ENDCHAR
STARTCHAR paragraph
ENCODING 182
SWIDTH 750 0
DWIDTH 6 0
BBX 5 8 1 0
BITMAP
78
E8
E8
68
28
28
28
28
ENDCHAR
STARTCHAR periodcentered
ENCODING 183
SWIDTH 375 0
DWIDTH 3 0
BBX 2 2 1 3
BITMAP
C0
C0
ENDCHAR
STARTCHAR cedilla
ENCODING 184
SWIDTH 375 0
DWIDTH 3 0
BBX 2 2 1 0
BITMAP
40
80
ENDCHAR
STARTCHAR onesuperior
ENCODING 185
SWIDTH 375 0
DWIDTH 3 0
BBX 2 4 1 4
BITMAP
40
C0
40
40
ENDCHAR
STARTCHAR ordmasculine
ENCODING 186
SWIDTH 500 0
DWIDTH 4 0
BBX 3 5 1 3
BITMAP
40
A0
40
00
E0
ENDCHAR
STARTCHAR guillemotright
ENCODING 187
SWIDTH 720 0
DWIDTH 6 0
BBX 5 5 1 1
BITMAP
A0
50
28
50
A0
ENDCHAR
STARTCHAR onequarter
ENCODING 188
SWIDTH 720 0
DWIDTH 7 0
BBX 6 7 1 1
BITMAP
44
C8
50
54
28
5C
84
ENDCHAR
STARTCHAR onehalf
ENCODING 189
SWIDTH 720 0
DWIDTH 8 0
BBX 7 7 1 1
BITMAP
44
C8
50
6C
22
44
8E
ENDCHAR
STARTCHAR threequarters
ENCODING 190
SWIDTH 720 0
DWIDTH 7 0
BBX 6 7 1 1
BITMAP
E4
48
30
D4
28
5C
84
ENDCHAR
STARTCHAR questiondown
ENCODING 191
SWIDTH 720 0
DWIDTH 5 0
BBX 4 7 1 1
BITMAP
20
00
20
60
80
90
60
ENDCHAR
STARTCHAR Agrave
ENCODING 192
SWIDTH 720 0
DWIDTH 5 0
BBX 4 7 1 1
BITMAP
40
20
60
90
F0
90
90
ENDCHAR
STARTCHAR Aacute
ENCODING 193
SWIDTH 720 0
DWIDTH 5 0
BBX 4 7 1 1
BITMAP
20
40
60
90
F0
90
90
ENDCHAR
STARTCHAR Acircumflex
ENCODING 194
SWIDTH 720 0
DWIDTH 5 0
BBX 4 7 1 1
BITMAP
60
90
60
90
F0
90
90
ENDCHAR
STARTCHAR Atilde
ENCODING 195
SWIDTH 720 0
DWIDTH 5 0
BBX 4 7 1 1
BITMAP
50
A0
60
90
F0
90
90
ENDCHAR
STARTCHAR Adieresis
ENCODING 196
SWIDTH 720 0
DWIDTH 5 0
BBX 4 7 1 1
BITMAP
90
60
90
90
F0
90
90
ENDCHAR
STARTCHAR Aring
ENCODING 197
SWIDTH 720 0
DWIDTH 5 0
BBX 4 7 1 1
BITMAP
60
90
60
90
F0
90
90
ENDCHAR
STARTCHAR AE
ENCODING 198
SWIDTH 720 0
DWIDTH 8 0
BBX 7 7 1 1
BITMAP
3E
50
50
7C
90
90
9E
ENDCHAR
STARTCHAR Ccedilla
ENCODING 199
SWIDTH 720 0
DWIDTH 7 0
BBX 4 8 1 0
BITMAP
60
90
80
80
90
60
20
40
ENDCHAR
STARTCHAR Egrave
ENCODING 200
SWIDTH 720 0
DWIDTH 5 0
BBX 4 7 1 1
BITMAP
40
20
F0
80
E0
80
F0
ENDCHAR
STARTCHAR Eacute
ENCODING 201
SWIDTH 720 0
DWIDTH 5 0
BBX 4 7 1 1
BITMAP
20
40
F0
80
E0
80
F0
ENDCHAR
STARTCHAR Ecircumflex
ENCODING 202
SWIDTH 720 0
DWIDTH 5 0
BBX 4 7 1 1
BITMAP
40
A0
F0
80
E0
80
F0
ENDCHAR
STARTCHAR Edieresis
ENCODING 203
SWIDTH 720 0
DWIDTH 5 0
BBX 4 7 1 1
BITMAP
90
00
F0
80
E0
80
F0
ENDCHAR
STARTCHAR Igrave
ENCODING 204
SWIDTH 720 0
DWIDTH 4 0
BBX 3 7 1 1
BITMAP
80
40
E0
40
40
40
E0
ENDCHAR
STARTCHAR Iacute
ENCODING 205
SWIDTH 720 0
DWIDTH 4 0
BBX 3 7 1 1
BITMAP
20
40
E0
40
40
40
E0
ENDCHAR
STARTCHAR Icircumflex
ENCODING 206
SWIDTH 720 0
DWIDTH 4 0
BBX 3 7 1 1
BITMAP
40
A0
E0
40
40
40
E0
ENDCHAR
STARTCHAR Idieresis
ENCODING 207
SWIDTH 720 0
DWIDTH 4 0
BBX 3 7 1 1
BITMAP
A0
00
E0
40
40
40
E0
ENDCHAR
STARTCHAR Eth
ENCODING 208
SWIDTH 720 0
DWIDTH 6 0
BBX 5 7 1 1
BITMAP
70
48
48
E8
48
48
70
ENDCHAR
STARTCHAR Ntilde
ENCODING 209
SWIDTH 720 0
DWIDTH 5 0
BBX 4 7 1 1
BITMAP
50
A0
90
D0
B0
90
90
ENDCHAR
STARTCHAR Ograve
ENCODING 210
SWIDTH 720 0
DWIDTH 5 0
BBX 4 7 1 1
BITMAP
40
20
60
90
90
90
60
ENDCHAR
STARTCHAR Oacute
ENCODING 211
SWIDTH 720 0
DWIDTH 5 0
BBX 4 7 1 1
BITMAP
20
40
60
90
90
90
60
ENDCHAR
STARTCHAR Ocircumflex
ENCODING 212
SWIDTH 720 0
DWIDTH 5 0
BBX 4 7 1 1
BITMAP
60
90
60
90
90
90
60
ENDCHAR
STARTCHAR Otilde
ENCODING 213
SWIDTH 720 0
DWIDTH 5 0
BBX 4 7 1 1
BITMAP
50
A0
60
90
90
90
60
ENDCHAR
STARTCHAR Odieresis
ENCODING 214
SWIDTH 720 0
DWIDTH 5 0
BBX 4 7 1 1
BITMAP
90
60
90
90
90
90
60
ENDCHAR
STARTCHAR multiply
ENCODING 215
SWIDTH 720 0
DWIDTH 6 0
BBX 5 5 1 1
BITMAP
88
50
20
50
88
ENDCHAR
STARTCHAR Oslash
ENCODING 216
SWIDTH 750 0
DWIDTH 6 0
BBX 5 8 1 0
BITMAP
08
70
98
A8
A8
C8
70
80
ENDCHAR
STARTCHAR Ugrave
ENCODING 217
SWIDTH 720 0
DWIDTH 5 0
BBX 4 7 1 1
BITMAP
40
20
90
90
90
90
60
ENDCHAR
STARTCHAR Uacute
ENCODING 218
SWIDTH 720 0
DWIDTH 5 0
BBX 4 7 1 1
BITMAP
20
40
90
90
90
90
60
ENDCHAR
STARTCHAR Ucircumflex
ENCODING 219
SWIDTH 720 0
DWIDTH 5 0
BBX 4 7 1 1
BITMAP
60
90
00
90
90
90
60
ENDCHAR
STARTCHAR Udieresis
ENCODING 220
SWIDTH 720 0
DWIDTH 5 0
BBX 4 7 1 1
BITMAP
90
00
90
90
90
90
60
ENDCHAR
STARTCHAR Yacute
ENCODING 221
SWIDTH 720 0
DWIDTH 6 0
BBX 5 7 1 1
BITMAP
10
20
88
88
50
20
20
ENDCHAR
STARTCHAR Thorn
ENCODING 222
SWIDTH 720 0
DWIDTH 5 0
BBX 4 7 1 1
BITMAP
80
E0
90
90
E0
80
80
ENDCHAR
STARTCHAR germandbls
ENCODING 223
SWIDTH 625 0
DWIDTH 5 0
BBX 4 8 1 0
BITMAP
60
90
90
A0
90
90
A0
80
ENDCHAR
STARTCHAR agrave
ENCODING 224
SWIDTH 720 0
DWIDTH 5 0
BBX 4 7 1 1
BITMAP
40
20
60
10
70
90
70
ENDCHAR
STARTCHAR aacute
ENCODING 225
SWIDTH 720 0
DWIDTH 5 0
BBX 4 7 1 1
BITMAP
20
40
60
10
70
90
70
ENDCHAR
STARTCHAR acircumflex
ENCODING 226
SWIDTH 720 0
DWIDTH 5 0
BBX 4 7 1 1
BITMAP
20
50
60
10
70
90
70
ENDCHAR
STARTCHAR atilde
ENCODING 227
SWIDTH 720 0
DWIDTH 5 0
BBX 4 7 1 1
BITMAP
50
A0
60
10
70
90
70
ENDCHAR
STARTCHAR adieresis
ENCODING 228
SWIDTH 720 0
DWIDTH 5 0
BBX 4 7 1 1
BITMAP
50
00
60
10
70
90
70
ENDCHAR
STARTCHAR aring
ENCODING 229
SWIDTH 720 0
DWIDTH 5 0
BBX 4 7 1 1
BITMAP
60
90
60
10
70
90
70
ENDCHAR
STARTCHAR ae
ENCODING 230
SWIDTH 720 0
DWIDTH 8 0
BBX 7 5 1 1
BITMAP
6C
12
7C
90
7C
ENDCHAR
STARTCHAR ccedilla
ENCODING 231
SWIDTH 625 0
DWIDTH 5 0
BBX 4 6 1 0
BITMAP
70
80
80
70
20
40
ENDCHAR
STARTCHAR egrave
ENCODING 232
SWIDTH 720 0
DWIDTH 5 0
BBX 4 7 1 1
BITMAP
40
20
60
90
F0
80
70
ENDCHAR
STARTCHAR eacute
ENCODING 233
SWIDTH 720 0
DWIDTH 5 0
BBX 4 7 1 1
BITMAP
20
40
60
90
F0
80
70
ENDCHAR
STARTCHAR ecircumflex
ENCODING 234
SWIDTH 720 0
DWIDTH 5 0
BBX 4 7 1 1
BITMAP
20
50
60
90
F0
80
70
ENDCHAR
STARTCHAR edieresis
ENCODING 235
SWIDTH 720 0
DWIDTH 5 0
BBX 4 7 1 1
BITMAP
90
00
60
90
F0
80
70
ENDCHAR
STARTCHAR igrave
ENCODING 236
SWIDTH 720 0
DWIDTH 3 0
BBX 2 7 1 1
BITMAP
80
40
00
80
80
80
40
ENDCHAR
STARTCHAR iacute
ENCODING 237
SWIDTH 720 0
DWIDTH 3 0
BBX 2 7 1 1
BITMAP
40
80
00
80
80
80
40
ENDCHAR
STARTCHAR icircumflex
ENCODING 238
SWIDTH 720 0
DWIDTH 4 0
BBX 3 7 1 1
BITMAP
40
A0
00
40
40
40
20
ENDCHAR
STARTCHAR idieresis
ENCODING 239
SWIDTH 720 0
DWIDTH 4 0
BBX 3 7 1 1
BITMAP
A0
00
40
40
40
40
20
ENDCHAR
STARTCHAR eth
ENCODING 240
SWIDTH 720 0
DWIDTH 5 0
BBX 4 7 1 1
BITMAP
A0
C0
20
70
90
90
60
ENDCHAR
STARTCHAR ntilde
ENCODING 241
SWIDTH 720 0
DWIDTH 5 0
BBX 4 7 1 1
BITMAP
50
A0
00
E0
90
90
90
ENDCHAR
STARTCHAR ograve
ENCODING 242
SWIDTH 720 0
DWIDTH 5 0
BBX 4 7 1 1
BITMAP
40
20
00
60
90
90
60
ENDCHAR
STARTCHAR oacute
ENCODING 243
SWIDTH 720 0
DWIDTH 5 0
BBX 4 7 1 1
BITMAP
20
40
00
60
90
90
60
ENDCHAR
STARTCHAR ocircumflex
ENCODING 244
SWIDTH 720 0
DWIDTH 5 0
BBX 4 7 1 1
BITMAP
20
50
00
60
90
90
60
ENDCHAR
STARTCHAR otilde
ENCODING 245
SWIDTH 720 0
DWIDTH 5 0
BBX 4 7 1 1
BITMAP
50
A0
00
60
90
90
60
ENDCHAR
STARTCHAR odieresis
ENCODING 246
SWIDTH 720 0
DWIDTH 5 0
BBX 4 7 1 1
BITMAP
90
00
60
90
90
90
60
ENDCHAR
STARTCHAR divide
ENCODING 247
SWIDTH 720 0
DWIDTH 6 0
BBX 5 5 1 1
BITMAP
20
00
F8
00
20
ENDCHAR
STARTCHAR oslash
ENCODING 248
SWIDTH 750 0
DWIDTH 6 0
BBX 5 7 1 0
BITMAP
08
70
98
A8
C8
70
80
ENDCHAR
STARTCHAR ugrave
ENCODING 249
SWIDTH 720 0
DWIDTH 5 0
BBX 4 7 1 1
BITMAP
40
20
90
90
90
90
70
ENDCHAR
STARTCHAR uacute
ENCODING 250
SWIDTH 720 0
DWIDTH 5 0
BBX 4 7 1 1
BITMAP
20
40
90
90
90
90
70
ENDCHAR
STARTCHAR ucircumflex
ENCODING 251
SWIDTH 720 0
DWIDTH 5 0
BBX 4 7 1 1
BITMAP
20
50
00
90
90
90
70
ENDCHAR
STARTCHAR udieresis
ENCODING 252
SWIDTH 720 0
DWIDTH 5 0
BBX 4 7 1 1
BITMAP
90
00
90
90
90
90
70
ENDCHAR
STARTCHAR yacute
ENCODING 253
SWIDTH 720 0
DWIDTH 5 0
BBX 4 8 1 0
BITMAP
40
20
90
90
90
70
10
60
ENDCHAR
STARTCHAR thorn
ENCODING 254
SWIDTH 625 0
DWIDTH 5 0
BBX 4 7 1 0
BITMAP
80
E0
90
90
E0
80
80
ENDCHAR
STARTCHAR ydieresis
ENCODING 255
SWIDTH 720 0
DWIDTH 5 0
BBX 4 8 1 0
BITMAP
90
00
90
90
90
70
10
60
ENDCHAR
ENDFONT
